<?xml version="1.0" encoding="UTF-8"?>
<svg width="415px" height="415px" viewBox="0 0 415 415" version="1.1" xmlns="http://www.w3.org/2000/svg" xmlns:xlink="http://www.w3.org/1999/xlink">
    <title>images / matcall_icon</title>
    <g id="images-/-matcall_icon" stroke="none" stroke-width="1" fill="none" fill-rule="evenodd">
        <path d="M220.280345,350.15625 C231.960057,350.15625 240.773319,355.020617 245.393864,363.924146 C246.420652,365.835147 246.976829,367.833012 246.976829,369.744014 C246.976829,373.826608 244.238728,376.47595 240.131577,376.47595 C236.666168,376.47595 234.527027,375.042699 232.815714,371.568151 C230.03483,365.748284 225.884896,362.925213 220.451477,362.925213 C211.894911,362.925213 206.461492,370.35206 206.461492,382.512977 C206.461492,394.80419 211.852129,402.231037 220.49426,402.231037 C226.184375,402.231037 230.33431,399.451398 232.986845,393.544667 C234.612592,390.113551 236.537819,388.723732 239.832097,388.723732 C244.281511,388.723732 247.190743,391.546802 247.190743,395.759691 C247.190743,397.279806 246.848481,398.843352 246.206738,400.363467 C242.484632,409.266996 232.644582,415 220.793739,415 C201.798164,415 190.460715,403.056242 190.460715,382.556409 C190.460715,362.100008 202.054861,350.15625 220.280345,350.15625 Z M73.6284671,350.286546 C79.9667832,350.286546 83.6281646,353.882066 83.7640735,360.252715 L83.767997,360.623326 L83.767997,407.48629 C83.767997,412.17693 81.2438102,414.869704 76.8371791,414.869704 C72.5797661,414.869704 70.0733695,412.306683 69.9536389,407.825932 L69.9491441,407.48629 L69.9491441,374.782108 L69.6496643,374.782108 L55.916377,409.266996 C54.7612407,412.220362 52.9215792,413.566749 49.9267813,413.566749 C47.0389405,413.566749 45.1058553,412.314815 43.9740827,409.577291 L30.1611155,374.782108 L29.8188529,374.782108 L29.8188529,407.48629 C29.8188529,412.17693 27.2946662,414.869704 22.9308179,414.869704 C18.6291065,414.869704 16.1212665,412.303631 16.0042842,407.817929 L16,407.48629 L16,360.623326 C16,354.065116 19.6793231,350.286546 26.1823127,350.286546 C31.5340553,350.286546 34.4750432,352.443511 36.6824038,358.014101 L49.7128672,391.50337 L50.0551298,391.50337 L62.8899777,358.408301 C65.1574675,352.545002 68.1094825,350.286546 73.6284671,350.286546 Z M117.677967,350.286546 C124.000723,350.286546 127.741634,352.94916 130.103993,359.170188 L130.256118,359.580961 L145.615153,402.057309 C146.342461,404.098606 146.641941,405.575289 146.641941,407.225699 C146.641941,411.69918 143.347663,414.869704 138.769901,414.869704 C134.348295,414.869704 132.000882,412.887909 130.617358,408.038704 L130.512815,407.660018 L128.416457,400.710922 L107.28174,400.710922 L105.185382,407.399426 C103.687983,412.698112 101.334927,414.869704 97.1422105,414.869704 C92.1794027,414.869704 89.141822,412.003202 89.141822,407.269131 C89.141822,406.026312 89.506362,404.265395 90.1008428,402.498784 L90.2541755,402.057309 L105.484862,359.580961 C107.752351,353.196479 111.560023,350.286546 117.677967,350.286546 Z M184.701845,351.242046 C188.937345,351.242046 191.675446,353.587366 191.675446,357.66996 C191.675446,361.647872 188.994726,363.976458 185.01843,364.093258 L184.701845,364.097873 L173.835007,364.097873 L173.835007,406.574221 C173.835007,411.872907 170.968558,414.869704 166.00575,414.869704 C161.153227,414.869704 158.304926,412.004618 158.180731,406.924049 L158.176493,406.574221 L158.176493,364.097873 L147.352438,364.097873 C143.159721,364.097873 140.336054,361.752554 140.336054,357.66996 C140.336054,353.692048 142.93554,351.363461 147.026397,351.246662 L147.352438,351.242046 L184.701845,351.242046 Z M277.164693,350.286546 C283.487449,350.286546 287.228361,352.94916 289.59072,359.170188 L289.742844,359.580961 L305.101879,402.057309 C305.829187,404.098606 306.128667,405.575289 306.128667,407.225699 C306.128667,411.69918 302.834389,414.869704 298.256627,414.869704 C293.835022,414.869704 291.487608,412.887909 290.104084,408.038704 L289.999541,407.660018 L287.903183,400.710922 L266.768467,400.710922 L264.672108,407.399426 C263.174709,412.698112 260.821654,414.869704 256.628937,414.869704 C251.666129,414.869704 248.628548,412.003202 248.628548,407.269131 C248.628548,406.026312 248.993088,404.265395 249.587569,402.498784 L249.740902,402.057309 L264.971588,359.580961 C267.239078,353.196479 271.046749,350.286546 277.164693,350.286546 Z M319.417315,350.286546 C324.269838,350.286546 327.118139,353.151632 327.242334,358.232201 L327.246572,358.582029 L327.246572,401.058377 L346.584409,401.058377 C350.777126,401.058377 353.55801,403.403696 353.55801,407.48629 C353.55801,411.464202 350.958524,413.792789 346.907243,413.909588 L346.584409,413.914204 L319.417315,413.914204 C314.564791,413.914204 311.675588,411.007594 311.549575,405.92518 L311.545275,405.575289 L311.545275,358.582029 C311.545275,353.283343 314.454507,350.286546 319.417315,350.286546 Z M365.734305,350.286546 C370.586828,350.286546 373.435129,353.151632 373.559324,358.232201 L373.563562,358.582029 L373.563562,401.058377 L392.901399,401.058377 C397.094116,401.058377 399.875,403.403696 399.875,407.48629 C399.875,411.464202 397.275514,413.792789 393.224233,413.909588 L392.901399,413.914204 L365.734305,413.914204 C360.881781,413.914204 357.992578,411.007594 357.866565,405.92518 L357.862265,405.575289 L357.862265,358.582029 C357.862265,353.283343 360.771497,350.286546 365.734305,350.286546 Z M117.763533,364.532192 L117.42127,364.532192 L110.404887,388.6803 L124.99383,388.6803 L117.763533,364.532192 Z M277.250259,364.532192 L276.907996,364.532192 L269.891613,388.6803 L284.480557,388.6803 L277.250259,364.532192 Z M296.125,0 C353.424543,0 399.875,46.4504572 399.875,103.75 L399.875,337.1875 L290.9375,337.1875 L290.9375,107.640625 C290.9375,99.1779233 284.182669,92.2928969 275.770514,92.0830529 L275.375,92.078125 C266.912298,92.078125 260.027272,98.832956 259.817428,107.245111 L259.8125,107.640625 L259.8125,337.1875 L156.0625,337.1875 L156.0625,107.640625 C156.0625,99.1779233 149.307669,92.2928969 140.895514,92.0830529 L140.5,92.078125 C132.037298,92.078125 125.152272,98.832956 124.942428,107.245111 L124.9375,107.640625 L124.9375,337.1875 L16,337.1875 L16,103.75 C16,46.4504572 62.4504572,0 119.75,0 C156.982079,0 189.633527,19.6120171 207.937253,49.0689625 C226.241473,19.6120171 258.892921,0 296.125,0 Z" id="Shape" fill="#000000" fill-rule="nonzero"></path>
    </g>
</svg>